<?xml version="1.0" standalone="no"?>
<!DOCTYPE svg PUBLIC "-//W3C//DTD SVG 20010904//EN"
 "http://www.w3.org/TR/2001/REC-SVG-20010904/DTD/svg10.dtd">
<svg version="1.0" xmlns="http://www.w3.org/2000/svg"
 width="654.000000pt" height="254.000000pt" viewBox="0 0 654.000000 254.000000"
 preserveAspectRatio="xMidYMid meet">

<g transform="translate(0.000000,254.000000) scale(0.100000,-0.100000)"
fill="#000000" stroke="none">
<path d="M196 2529 c-58 -9 -130 -56 -169 -109 l-27 -38 0 -1120 0 -1119 35
-45 c21 -28 54 -56 87 -72 l52 -26 3083 0 c2624 0 3089 2 3117 14 47 19 113
82 139 130 l22 41 0 1080 0 1080 -22 41 c-29 54 -89 107 -149 130 -54 21 -165
22 -2599 17 -533 -1 -1079 0 -1212 1 -151 2 -243 -1 -243 -7 0 -9 -18 -8 -105
8 -25 4 -27 4 -10 -5 16 -8 15 -9 -10 -4 -46 9 -1933 13 -1989 3z m2818 -34
c19 -14 18 -15 -24 -14 -41 1 -43 2 -15 9 28 7 28 8 5 9 -14 1 -32 6 -40 11
-11 8 -6 9 19 5 18 -3 43 -12 55 -20z m188 -7 c-9 -9 -15 -9 -24 0 -9 9 -7 12
12 12 19 0 21 -3 12 -12z m-655 -14 c-3 -3 -12 -4 -19 -1 -8 3 -5 6 6 6 11 1
17 -2 13 -5z m1416 -11 c-7 -2 -21 -2 -30 0 -10 3 -4 5 12 5 17 0 24 -2 18 -5z
m324 1 c-3 -3 -12 -4 -19 -1 -8 3 -5 6 6 6 11 1 17 -2 13 -5z m-1227 -14 c0
-5 -2 -10 -4 -10 -3 0 -8 5 -11 10 -3 6 -1 10 4 10 6 0 11 -4 11 -10z m-2053
-26 c-3 -3 -12 -4 -19 -1 -8 3 -5 6 6 6 11 1 17 -2 13 -5z m40 -10 c-3 -3 -12
-4 -19 -1 -8 3 -5 6 6 6 11 1 17 -2 13 -5z m71 -15 c26 -7 51 -15 56 -20 5 -4
-18 -1 -50 7 -32 9 -61 18 -63 20 -7 7 7 5 57 -7z m2892 -59 c0 -9 -11 -26
-25 -38 -14 -13 -23 -27 -20 -32 4 -6 10 -8 13 -6 4 2 23 1 42 -4 33 -8 32 -8
-17 -9 -31 -1 -53 3 -53 10 0 5 -4 7 -10 4 -11 -7 -50 52 -50 76 0 9 14 24 32
32 29 14 35 14 60 -1 15 -9 28 -24 28 -32z m-1632 21 c-7 -11 -16 -17 -20 -14
-10 5 10 33 23 33 5 0 4 -9 -3 -19z m190 7 c36 -36 -3 -82 -61 -71 -21 4 -27
11 -27 33 0 39 60 66 88 38z m67 2 c3 -5 1 -10 -4 -10 -6 0 -11 5 -11 10 0 6
2 10 4 10 3 0 8 -4 11 -10z m1664 -2 c11 -11 13 -10 7 2 -4 8 0 6 8 -4 21 -26
20 -38 -7 -69 -38 -45 -88 -32 -99 25 -4 22 -1 28 19 32 12 4 23 11 23 16 0
14 33 12 49 -2z m-2989 -17 c55 -13 203 -47 250 -57 19 -4 31 -9 25 -10 -10
-4 -127 19 -270 51 -38 9 -74 21 -80 27 -7 7 -4 9 10 5 11 -3 40 -10 65 -16z
m927 -21 c15 -30 1 -50 -33 -50 -26 0 -51 38 -41 63 9 23 60 14 74 -13z m1911
-77 c-10 -2 -28 -2 -40 0 -13 2 -5 4 17 4 22 1 32 -1 23 -4z m-1533 -13 c-11
-5 -38 -8 -60 -8 -38 0 -39 1 -10 8 17 4 44 8 60 8 25 1 27 -1 10 -8z m-1181
-16 c12 -12 16 -12 16 -2 0 10 3 9 10 -2 6 -9 10 -11 10 -3 0 7 7 10 15 7 8
-4 15 -1 15 5 0 6 5 11 11 11 5 0 7 -5 3 -12 -4 -6 -3 -8 3 -5 6 4 28 -9 48
-27 20 -19 43 -32 49 -30 10 4 36 -34 36 -52 0 -7 -86 1 -115 10 -11 3 -50 13
-87 22 -44 10 -68 21 -68 30 0 8 6 14 14 14 8 0 13 8 11 18 -2 16 2 32 10 32
2 0 11 -7 19 -16z m1282 7 c-3 -5 11 -12 31 -16 21 -4 50 -16 66 -27 15 -11
33 -21 40 -22 47 -9 77 -19 77 -25 0 -5 12 -6 26 -3 20 4 25 2 19 -8 -6 -10
-2 -12 14 -7 16 4 22 1 20 -11 -3 -30 1 -35 16 -22 8 7 22 9 31 6 11 -4 15 -2
11 8 -10 25 6 27 31 4 14 -13 22 -17 17 -9 -5 9 -2 19 9 27 11 8 13 14 7 19
-6 3 -11 12 -11 18 0 7 10 -3 21 -20 22 -34 31 -41 27 -21 -2 7 11 15 27 19
30 7 30 7 -7 8 -20 0 -39 5 -42 10 -4 5 6 8 21 6 16 -2 37 -1 47 2 19 5 19 6
1 19 -15 11 -16 14 -3 14 8 0 23 -10 31 -22 l16 -23 -6 23 c-5 20 -2 22 27 20
18 -1 37 -10 43 -19 9 -14 14 -15 30 -5 15 8 21 8 24 -1 3 -7 13 -13 24 -13
10 0 19 -5 19 -11 0 -6 -7 -8 -16 -5 -9 3 -12 2 -9 -5 4 -5 14 -9 23 -8 10 1
25 -1 35 -6 9 -4 25 -4 34 -1 10 4 14 4 10 0 -4 -4 1 -13 10 -20 14 -10 21 -9
37 2 11 8 27 14 36 14 13 0 13 -1 0 -10 -13 -8 -12 -10 3 -10 16 0 17 -6 11
-45 -7 -48 9 -64 20 -20 4 16 11 22 21 19 17 -7 21 11 5 21 -5 3 -9 17 -8 30
1 13 5 22 9 19 4 -2 10 0 13 4 3 5 38 10 78 11 40 1 101 4 136 7 40 3 86 -1
127 -11 72 -19 99 -15 184 22 41 18 80 26 148 30 91 6 91 6 160 -32 37 -20 70
-40 73 -44 3 -4 14 -11 25 -15 13 -5 15 -10 7 -13 -9 -3 -7 -12 8 -30 18 -23
19 -29 7 -47 -19 -29 -27 -66 -15 -66 6 0 8 -11 6 -25 -3 -13 -1 -22 3 -19 15
9 10 -13 -6 -26 -9 -7 -15 -20 -13 -29 1 -9 -1 -22 -6 -30 -7 -11 -6 -12 5 -5
8 4 19 9 24 10 6 1 19 6 29 10 14 5 17 4 12 -4 -4 -7 -2 -12 3 -12 6 0 11 -4
11 -8 0 -5 -7 -9 -15 -9 -8 0 -12 4 -9 9 7 12 -18 10 -36 -3 -13 -9 -12 -10 3
-5 20 6 22 -5 5 -22 -9 -9 -9 -12 0 -12 7 0 12 5 12 10 0 6 5 10 11 10 5 0 7
-4 4 -10 -13 -21 -13 -49 1 -54 8 -3 14 -13 13 -23 0 -10 -3 -13 -5 -6 -3 7
-12 9 -21 6 -12 -5 -14 -3 -8 7 6 9 4 11 -5 5 -10 -6 -12 -4 -7 8 3 10 2 17
-3 17 -17 0 -20 -18 -5 -30 8 -7 12 -17 8 -23 -4 -6 0 -8 9 -5 18 7 44 -28 25
-35 -7 -3 -3 -6 8 -6 16 -1 20 -8 20 -35 0 -23 -3 -32 -12 -29 -9 4 -11 0 -7
-11 3 -9 10 -13 15 -10 5 3 9 0 9 -5 0 -6 -9 -11 -20 -11 -11 0 -20 4 -20 8 0
4 -10 8 -21 9 -20 2 -20 1 -4 -11 14 -10 15 -17 6 -34 -7 -13 -8 -29 -2 -44
17 -45 5 -67 -38 -69 -17 -1 -11 -4 19 -10 25 -5 53 -7 63 -5 9 2 15 1 12 -3
-2 -5 18 -6 46 -3 40 4 48 2 44 -10 -4 -9 -16 -13 -33 -11 -78 10 -252 17
-252 10 0 -5 -10 -6 -22 -3 -13 3 -17 3 -10 0 6 -3 12 -15 12 -26 0 -19 -2
-18 -31 6 -17 14 -38 26 -46 26 -16 0 -15 24 3 104 5 19 3 27 -4 22 -19 -12
-20 41 -1 114 3 9 -5 15 -21 17 -23 2 -23 2 -5 -7 18 -9 17 -10 -7 -7 -19 3
-26 0 -25 -12 2 -35 -13 -70 -28 -65 -19 8 -19 -10 0 -26 8 -7 15 -23 15 -35
0 -13 6 -25 13 -28 6 -2 9 -8 5 -12 -4 -4 -17 2 -29 14 -13 12 -25 21 -28 21
-3 0 -28 -21 -56 -46 -27 -26 -68 -63 -89 -83 -22 -20 -5 2 37 48 43 47 74 88
70 92 -5 4 -26 12 -47 18 l-40 10 -57 -60 c-37 -38 -62 -58 -70 -53 -7 4 -9 3
-5 -4 3 -6 2 -14 -4 -17 -7 -4 -10 26 -8 94 2 89 4 101 20 101 10 0 18 5 18
10 0 6 -9 10 -20 10 -18 0 -20 7 -20 74 0 41 5 78 10 81 6 3 10 15 10 26 0 10
-4 19 -10 19 -5 0 -10 -6 -10 -12 0 -9 -4 -8 -10 2 -9 13 -11 13 -19 0 -7 -10
-5 -20 5 -31 25 -28 18 -90 -17 -126 -16 -18 -33 -33 -37 -33 -4 0 -12 -11
-19 -25 -13 -30 2 -34 17 -4 8 14 19 19 38 17 l27 -3 0 -115 c0 -98 -3 -117
-17 -128 -10 -7 -18 -17 -18 -22 0 -6 -10 -21 -22 -36 -15 -16 -27 -50 -35
-92 -11 -61 -11 -53 -8 100 2 97 0 170 -6 173 -5 4 -9 -68 -9 -179 0 -109 -4
-186 -9 -186 -6 0 -7 -15 -4 -33 3 -22 0 -37 -10 -46 -13 -10 -15 -9 -11 6 3
10 6 114 7 230 2 168 -1 214 -11 218 -7 3 -10 11 -6 17 5 10 4 10 -6 1 -13
-12 -15 -94 -8 -266 2 -31 0 -58 -4 -60 -3 -1 -7 -22 -9 -47 -1 -25 -11 -58
-22 -75 -19 -30 -19 -30 1 -8 l20 22 4 -22 c9 -47 -16 -63 -42 -27 -23 31 -44
26 -37 -10 4 -16 2 -32 -3 -35 -6 -3 -7 1 -4 9 4 9 0 18 -10 22 -13 5 -13 8
-2 19 14 15 13 104 -3 175 -10 43 -2 58 40 80 12 7 19 20 18 38 -1 17 -3 20
-6 10 -2 -10 -10 -18 -16 -18 -19 0 -34 43 -26 73 5 18 4 25 -3 21 -7 -5 -9 1
-6 14 4 12 2 22 -2 22 -5 0 -11 12 -13 28 -4 25 -4 25 -6 -5 -1 -31 -2 -32
-26 -21 -14 6 -25 15 -25 19 0 4 16 26 35 49 19 23 35 46 35 51 0 17 -26 -2
-44 -31 -9 -17 -21 -30 -26 -30 -5 0 -16 -12 -24 -27 -8 -16 -15 -22 -16 -15
0 7 -4 10 -10 7 -5 -3 -10 -2 -10 3 0 15 -43 23 -52 9 -5 -9 -10 -9 -20 1 -6
6 -21 12 -31 12 -17 0 -19 5 -15 43 3 23 2 56 -2 72 -5 26 -7 21 -14 -32 -4
-34 -5 -71 -1 -82 5 -15 2 -21 -10 -21 -9 0 -13 5 -10 10 10 16 -12 12 -29 -5
-8 -8 -20 -15 -26 -15 -6 0 -8 -4 -5 -10 3 -5 0 -10 -7 -11 -10 0 -10 -2 0 -6
6 -2 9 -9 6 -14 -3 -6 -11 -5 -20 2 -10 8 -14 8 -14 0 0 -6 11 -17 25 -23 18
-8 25 -19 25 -39 0 -15 -5 -31 -11 -34 -6 -4 -8 -13 -5 -20 2 -7 -2 -21 -9
-32 -13 -16 -14 -16 -15 -2 0 9 -7 19 -15 23 -22 8 -19 53 5 61 16 5 17 9 7
20 -7 8 -16 10 -21 4 -14 -13 -46 -11 -46 4 -1 7 -6 4 -15 -6 -11 -16 -27 -19
-100 -18 -57 1 -93 6 -106 15 -11 8 -17 16 -12 18 4 3 2 3 -5 1 -8 -1 -12 3
-9 9 2 7 14 12 26 11 19 -3 20 0 11 17 -13 24 -26 26 -34 5 -3 -8 -12 -15 -21
-15 -9 0 -15 -9 -15 -22 0 -18 2 -20 10 -8 7 12 11 10 18 -10 13 -34 22 -159
12 -165 -5 -3 -6 4 -3 15 5 17 0 20 -26 20 -19 0 -30 4 -26 10 6 9 -8 14 -28
11 -5 -1 -5 3 -2 9 4 6 14 9 23 5 14 -5 14 -4 -1 12 -17 20 -30 89 -29 163 0
35 -2 41 -9 25 -7 -15 -8 -11 -5 17 5 37 -6 58 -19 38 -3 -5 -2 -10 3 -10 6 0
7 -13 3 -32 -8 -36 -5 -208 4 -216 5 -5 -168 -122 -180 -122 -3 0 -5 13 -5 28
0 17 10 38 25 52 35 33 34 81 -3 120 -28 29 -28 31 -30 168 -2 117 0 141 13
146 19 7 19 30 0 46 -12 10 -15 9 -15 -6 0 -15 -2 -16 -9 -5 -7 11 -11 10 -20
-7 -8 -15 -8 -21 2 -25 8 -2 13 -44 15 -147 3 -116 2 -141 -9 -134 -8 4 -32 9
-54 11 -22 1 -59 5 -82 8 -49 5 -92 -11 -94 -34 -1 -14 -2 -14 -6 0 -3 13 -11
15 -37 9 -19 -4 -40 -11 -47 -14 -8 -4 -6 -1 4 7 18 15 23 43 8 49 -10 3 27
173 49 231 7 17 31 57 52 87 l39 55 -36 -40 -36 -40 7 30 c8 33 19 65 37 108
10 23 17 27 37 22 l25 -5 -23 16 c-12 9 -39 18 -60 20 l-37 2 35 -13 c28 -10
32 -14 18 -20 -10 -4 -18 -15 -18 -24 0 -10 -11 -51 -25 -92 -14 -41 -39 -121
-56 -179 -17 -58 -38 -113 -46 -122 -9 -10 -12 -26 -9 -40 3 -13 3 -17 0 -10
-7 16 -24 6 -24 -15 0 -9 6 -13 13 -10 10 4 9 -5 -5 -31 -23 -45 -23 -59 0
-66 9 -3 -13 -4 -49 -3 -51 2 -66 0 -62 -10 3 -7 14 -13 24 -13 19 0 19 -2 4
-31 -11 -19 -22 -29 -31 -25 -14 6 -19 -5 -7 -17 3 -4 17 3 30 15 13 12 23 17
23 11 0 -6 -11 -18 -24 -27 -23 -14 -26 -14 -41 0 -8 9 -22 13 -31 10 -8 -3
-12 -2 -9 4 6 9 -9 15 -29 11 -5 -1 -4 5 4 13 15 19 11 20 -24 6 -20 -7 -27
-6 -36 8 -9 15 -11 15 -29 -7 -27 -35 -35 -109 -16 -154 36 -87 14 -128 -71
-134 -32 -2 -62 -8 -67 -12 -4 -4 11 -17 33 -30 22 -12 40 -23 40 -24 0 -1
-15 -2 -34 -1 -62 3 -101 42 -59 58 15 6 14 9 -7 19 -32 16 -39 75 -14 129 14
32 15 44 6 77 -18 57 -16 121 3 121 9 0 18 -8 21 -17 16 -49 16 -49 24 -28 5
11 9 53 9 93 1 43 5 72 11 72 7 0 10 -38 9 -106 -1 -80 -4 -104 -14 -100 -9 3
-14 -15 -19 -65 -8 -73 -4 -89 20 -89 19 0 18 -10 -3 -27 -12 -9 -14 -16 -7
-19 7 -3 10 -14 7 -24 -4 -16 0 -20 20 -20 30 0 46 18 26 31 -10 6 -11 9 -1 9
6 0 12 9 12 20 0 13 -5 18 -15 14 -8 -4 -15 -1 -15 6 0 6 11 10 28 8 21 -2 28
-9 30 -31 2 -16 -2 -35 -9 -43 -16 -20 5 -18 25 2 20 20 20 67 0 106 -11 22
-14 44 -9 82 6 49 6 50 -10 29 -16 -23 -45 -31 -45 -13 0 6 5 10 10 10 15 0
34 54 21 58 -6 2 -11 10 -11 18 0 9 -4 13 -9 10 -5 -3 -8 6 -8 19 0 14 3 28 8
31 5 3 9 12 9 20 0 8 -4 13 -9 10 -11 -7 -20 50 -10 66 4 7 3 18 -3 25 -7 9
-7 13 2 13 9 0 9 4 2 13 -15 18 2 42 23 33 15 -5 16 -4 5 9 -11 13 -10 18 6
31 10 9 14 13 7 10 -6 -4 -14 -2 -18 4 -3 5 -2 10 4 10 6 0 8 7 5 15 -4 8 -1
15 5 15 6 0 11 7 11 15 0 8 12 26 28 41 15 15 21 23 15 20 -8 -4 -13 -1 -13 8
0 9 3 15 8 15 23 -4 24 4 2 17 -14 8 -17 13 -8 10 14 -4 16 -1 8 18 -4 12 -5
29 0 36 4 7 5 20 2 29 -5 13 -3 13 12 -1 21 -22 33 -24 16 -3 -6 8 -9 19 -5
25 3 5 -1 10 -9 10 -9 0 -16 5 -16 11 0 5 4 8 8 5 11 -6 7 42 -7 76 -7 20 -7
29 1 34 8 5 7 10 -3 18 -17 14 -24 40 -8 30 9 -5 10 1 5 20 -3 14 -3 26 1 26
12 0 44 61 37 71 -3 5 -1 9 4 9 5 0 14 11 20 24 15 34 70 49 162 44 58 -3 85
-10 108 -26 42 -30 75 -28 140 12 32 19 77 40 102 47 25 7 48 15 52 19 13 10
80 12 74 1z m659 -9 c-3 -3 -11 0 -18 7 -9 10 -8 11 6 5 10 -3 15 -9 12 -12z
m-1202 1 c-24 -2 -62 -2 -85 0 -24 2 -5 4 42 4 47 0 66 -2 43 -4z m2200 0 c-7
-2 -19 -2 -25 0 -7 3 -2 5 12 5 14 0 19 -2 13 -5z m-959 -24 c9 8 13 7 13 -4
0 -8 -4 -12 -9 -9 -4 3 -8 0 -8 -6 0 -6 -4 -8 -10 -5 -5 3 -10 14 -9 23 0 11
2 13 6 4 3 -9 9 -10 17 -3z m51 -28 c3 -5 2 -12 -3 -15 -5 -3 -9 1 -9 9 0 17
3 19 12 6z m-2255 -11 c20 -6 21 -8 5 -8 -11 0 -33 4 -50 8 -27 7 -27 8 -5 8
14 0 36 -4 50 -8z m125 -19 c35 -8 36 -9 10 -9 -16 -1 -48 3 -70 7 -35 8 -36
9 -10 9 17 1 48 -3 70 -7z m2215 -16 c0 -1 -6 -7 -13 -13 -10 -8 -13 -6 -14 8
-1 13 3 17 13 13 8 -3 14 -6 14 -8z m-2063 -11 c-3 -3 -12 -4 -19 -1 -8 3 -5
6 6 6 11 1 17 -2 13 -5z m108 -24 c-3 -5 -12 -10 -18 -10 -7 0 -6 4 3 10 19
12 23 12 15 0z m3051 -232 c4 -6 3 -8 -3 -5 -6 4 -13 0 -17 -8 -6 -16 -36 -21
-36 -5 0 5 8 6 18 3 14 -6 15 -4 5 8 -10 12 -8 15 7 16 11 1 23 -3 26 -9z
m-2715 -165 c11 -15 11 -16 -1 -6 -10 9 -18 9 -34 1 -19 -10 -20 -10 -7 5 17
21 25 21 42 0z m4 -101 c-3 -3 -5 0 -5 7 0 7 -4 10 -9 7 -5 -4 -7 4 -3 16 l5
22 9 -24 c5 -12 6 -25 3 -28z m-47 6 c-6 -18 -13 -27 -16 -20 -2 6 -10 12 -18
12 -8 0 -14 5 -14 11 0 6 9 8 20 4 21 -7 28 10 8 18 -7 3 -3 6 9 6 20 1 21 -1
11 -31z m2092 2 c0 -22 -4 -28 -15 -24 -18 7 -19 26 -3 42 17 17 18 16 18 -18z
m-2690 -139 c0 -5 -7 -12 -16 -15 -14 -5 -15 -4 -4 9 14 17 20 19 20 6z m3060
-29 c0 -15 -5 -34 -10 -42 -7 -11 -10 -2 -10 33 0 30 4 46 10 42 6 -3 10 -18
10 -33z m-963 -34 c-3 -8 -6 -5 -6 6 -1 11 2 17 5 13 3 -3 4 -12 1 -19z m929
-15 c-10 -10 -19 5 -10 18 6 11 8 11 12 0 2 -7 1 -15 -2 -18z m-883 -33 c-4
-34 -2 -50 6 -50 9 0 9 -5 1 -20 -11 -21 -4 -25 24 -14 13 5 14 9 5 20 -14 17
3 19 31 4 18 -10 19 -12 3 -30 -14 -16 -30 -20 -80 -20 -62 0 -86 16 -43 27
11 3 18 9 15 13 -3 4 2 10 10 14 11 4 15 20 15 56 0 27 4 50 9 50 5 0 7 -22 4
-50z m67 13 c0 -23 -4 -33 -9 -27 -9 8 -4 64 5 64 2 0 4 -17 4 -37z m166 -8
c3 -7 0 -23 -6 -35 -7 -14 -8 -20 -2 -16 8 4 9 -35 6 -125 -4 -129 -5 -133
-32 -156 l-27 -23 -3 40 c-3 32 2 47 23 72 30 36 29 59 -3 73 -20 9 -31 26
-14 24 4 -1 16 -1 27 0 16 1 17 3 5 10 -8 6 -17 8 -20 6 -3 -2 -7 9 -8 25 -1
16 2 31 7 34 11 7 2 46 -10 46 -13 0 -11 34 3 48 13 13 46 -1 54 -23z m1047
28 c-7 -2 -19 -2 -25 0 -7 3 -2 5 12 5 14 0 19 -2 13 -5z m915 -33 c-7 -10
-14 -17 -17 -15 -4 4 18 35 25 35 2 0 -1 -9 -8 -20z m-1318 0 c0 -5 -4 -10
-10 -10 -5 0 -10 5 -10 10 0 6 5 10 10 10 6 0 10 -4 10 -10z m527 4 c-3 -3
-12 -4 -19 -1 -8 3 -5 6 6 6 11 1 17 -2 13 -5z m-4587 -26 c0 -6 -6 -5 -15 2
-8 7 -15 14 -15 16 0 2 7 1 15 -2 8 -4 15 -11 15 -16z m2175 4 c-3 -3 -11 0
-18 7 -9 10 -8 11 6 5 10 -3 15 -9 12 -12z m43 -15 c7 -8 7 -17 -2 -30 -18
-24 -23 -21 -22 13 1 32 8 37 24 17z m2102 -12 c0 -10 -8 -14 -22 -12 -32 5
-35 27 -4 27 16 0 26 -6 26 -15z m1013 -10 c-22 -30 -25 -30 -41 -5 -7 11 -8
20 -3 20 5 0 11 -6 13 -12 3 -9 9 -8 22 5 25 25 30 21 9 -8z m34 -7 c-3 -8 -6
-5 -6 6 -1 11 2 17 5 13 3 -3 4 -12 1 -19z m-3190 -13 c-4 -10 -20 -15 -46
-15 -53 0 -46 27 7 32 45 4 46 3 39 -17z m1140 3 c-3 -8 -6 -5 -6 6 -1 11 2
17 5 13 3 -3 4 -12 1 -19z m128 12 c3 -5 1 -10 -4 -10 -6 0 -11 5 -11 10 0 6
2 10 4 10 3 0 8 -4 11 -10z m632 -22 c-3 -7 -5 -2 -5 12 0 14 2 19 5 13 2 -7
2 -19 0 -25z m1170 10 c-3 -8 -6 -5 -6 6 -1 11 2 17 5 13 3 -3 4 -12 1 -19z
m-34 -17 c22 -1 27 -5 26 -23 -1 -16 -3 -18 -6 -7 -3 14 -25 18 -126 24 -67 3
-130 9 -139 11 -21 6 -25 -21 -5 -29 7 -3 5 -6 -5 -6 -13 -1 -18 7 -18 27 l0
28 123 -13 c67 -6 134 -12 150 -12z m-2175 -4 c2 -11 -3 -15 -17 -14 -21 1
-28 17 -14 31 10 10 28 1 31 -17z m1022 13 c0 -5 -4 -10 -10 -10 -5 0 -10 5
-10 10 0 6 5 10 10 10 6 0 10 -4 10 -10z m-1077 -21 c-4 -4 -19 -10 -33 -14
-23 -7 -24 -6 -6 7 19 15 54 21 39 7z m1074 -15 c-3 -3 -12 -4 -19 -1 -8 3 -5
6 6 6 11 1 17 -2 13 -5z m973 -5 c0 -4 -6 -9 -12 -12 -17 -6 89 -26 127 -24
25 2 30 -2 32 -23 1 -14 0 -18 -3 -7 -5 15 -19 17 -114 17 -60 0 -115 3 -123
6 -10 3 -17 -2 -20 -13 -4 -14 -5 -14 -6 5 -1 13 5 22 14 22 8 0 15 4 15 8 0
12 34 11 41 -1 4 -5 10 -1 13 10 6 18 36 29 36 12z m-1891 -28 c-6 -2 -18 4
-27 13 -15 15 -15 15 10 4 15 -7 23 -15 17 -17z m544 -8 c4 -19 2 -33 -3 -33
-6 0 -10 17 -10 37 0 43 5 41 13 -4z m1420 30 c-7 -2 -21 -2 -30 0 -10 3 -4 5
12 5 17 0 24 -2 18 -5z m-2208 -13 c-3 -5 -12 -10 -18 -10 -7 0 -6 4 3 10 19
12 23 12 15 0z m401 -3 c4 -4 -2 -7 -14 -7 -12 0 -22 4 -22 9 0 10 26 9 36 -2z
m1101 2 c-14 -8 -22 -8 -30 0 -8 8 -3 11 19 11 25 -1 27 -2 11 -11z m43 1 c0
-5 -5 -10 -11 -10 -5 0 -7 5 -4 10 3 6 8 10 11 10 2 0 4 -4 4 -10z m733 3 c-7
-2 -19 -2 -25 0 -7 3 -2 5 12 5 14 0 19 -2 13 -5z m-1155 -44 c-3 -8 -7 -3
-11 10 -4 17 -3 21 5 13 5 -5 8 -16 6 -23z m1183 8 c-10 -9 -11 -8 -5 6 3 10
9 15 12 12 3 -3 0 -11 -7 -18z m-3835 3 c8 0 14 -9 14 -20 0 -29 -65 -29 -73
0 -5 20 9 31 31 24 8 -2 20 -4 28 -4z m701 -22 c-3 -7 -5 -2 -5 12 0 14 2 19
5 13 2 -7 2 -19 0 -25z m1983 22 c0 -5 -5 -10 -11 -10 -5 0 -7 5 -4 10 3 6 8
10 11 10 2 0 4 -4 4 -10z m225 0 c-3 -5 -27 -9 -53 -9 -46 2 -46 2 -12 9 53
11 72 11 65 0z m-1325 -10 c-18 -12 -30 -13 -30 -2 0 4 10 9 22 9 18 2 20 0 8
-7z m224 -6 c3 -8 2 -12 -4 -9 -6 3 -10 10 -10 16 0 14 7 11 14 -7z m-1949 -1
c-11 -3 -22 -9 -25 -13 -3 -5 -19 -10 -35 -12 -17 -2 -40 -9 -52 -16 -19 -10
-20 -16 -12 -44 9 -34 11 -93 2 -69 -3 8 -8 9 -12 3 -3 -5 -7 28 -9 74 l-3 84
83 -1 c46 -1 74 -4 63 -6z m1215 -28 c0 -24 -5 -35 -15 -35 -15 0 -22 50 -8
63 15 15 23 5 23 -28z m-40 0 c0 -23 -3 -25 -47 -25 -76 0 -84 15 -16 33 32 8
59 15 61 16 1 1 2 -10 2 -24z m820 15 c0 -5 -5 -10 -11 -10 -5 0 -7 5 -4 10 3
6 8 10 11 10 2 0 4 -4 4 -10z m-2193 -92 c-2 -18 -4 -4 -4 32 0 36 2 50 4 33
2 -18 2 -48 0 -65z m3209 84 c-2 -4 28 -7 67 -6 40 1 76 -1 81 -4 6 -3 33 -5
60 -4 51 2 95 -14 68 -25 -6 -2 -10 -9 -6 -14 12 -19 -7 -29 -30 -14 -20 14
-23 13 -23 0 0 -10 6 -14 16 -10 9 3 5 -5 -9 -18 -27 -27 -44 -25 -35 2 3 10
-1 24 -10 31 -12 10 -13 16 -4 26 7 9 7 14 1 14 -13 0 -28 -22 -27 -40 0 -8 7
-14 14 -12 7 1 11 -3 8 -10 -2 -7 -12 -12 -21 -11 -10 0 -15 -2 -12 -5 3 -3 0
-12 -7 -20 -10 -13 -8 -14 13 -8 21 6 22 5 7 -4 -20 -13 -54 -5 -80 18 -14 12
-22 13 -42 4 -27 -13 -32 -8 -12 11 6 7 29 12 50 13 21 0 43 6 50 14 10 10 8
12 -8 5 -36 -13 -49 -10 -56 15 -4 14 -7 18 -8 9 -1 -9 -8 -20 -17 -23 -8 -3
-12 -2 -9 4 3 6 -1 10 -9 10 -25 0 -19 20 7 21 19 1 19 2 3 6 -12 3 -25 -3
-36 -17 -16 -21 -16 -21 -17 14 -1 29 3 36 19 36 10 0 17 -3 14 -8z m714 4 c0
-2 -9 -6 -20 -9 -11 -3 -20 -1 -20 4 0 5 9 9 20 9 11 0 20 -2 20 -4z m-3890
-148 c-1 -102 -4 -138 -11 -126 -9 16 -2 268 7 268 2 0 4 -64 4 -142z m327
126 c-3 -3 -12 -4 -19 -1 -8 3 -5 6 6 6 11 1 17 -2 13 -5z m853 -4 c0 -5 -6
-10 -14 -10 -8 0 -18 5 -21 10 -3 6 3 10 14 10 12 0 21 -4 21 -10z m1820 -2
c0 -4 -9 -8 -20 -8 -11 0 -20 4 -20 9 0 6 9 9 20 8 11 -1 20 -5 20 -9z m518
-12 c-16 -8 -34 -18 -40 -21 -7 -4 -2 3 11 14 13 12 31 21 40 21 10 0 5 -6
-11 -14z m407 1 c39 -3 78 -58 68 -96 -4 -14 -7 -34 -7 -43 0 -10 -3 -18 -7
-18 -4 0 -5 -9 -2 -19 3 -10 -3 -31 -12 -45 -10 -14 -14 -26 -9 -26 4 0 -1 -6
-12 -14 -13 -10 -21 -11 -25 -4 -4 7 -12 3 -20 -11 -8 -11 -22 -21 -31 -21
-16 0 -18 11 -18 95 0 78 3 95 15 95 8 0 15 7 15 15 0 8 -7 15 -15 15 -11 0
-15 12 -15 45 0 42 2 45 23 40 12 -3 35 -7 52 -8z m-1258 -19 c-3 -8 -6 -5 -6
6 -1 11 2 17 5 13 3 -3 4 -12 1 -19z m-1798 -44 c-18 -22 -22 -11 -7 22 10 21
14 24 16 10 2 -9 -2 -24 -9 -32z m3331 -71 l0 -106 -25 23 c-23 21 -25 31 -25
107 0 82 0 83 25 83 l25 0 0 -107z m-1949 78 c-9 -6 -10 -11 -2 -15 6 -4 11
-16 11 -27 0 -14 -7 -19 -25 -19 -16 0 -25 6 -25 15 0 8 4 15 9 15 5 0 11 9
14 20 3 11 11 20 19 20 11 0 11 -2 -1 -9z m320 -8 c13 -16 12 -17 -3 -4 -10 7
-18 15 -18 17 0 8 8 3 21 -13z m-498 0 c-7 -2 -19 -2 -25 0 -7 3 -2 5 12 5 14
0 19 -2 13 -5z m594 -70 c-2 -16 -4 -3 -4 27 0 30 2 43 4 28 2 -16 2 -40 0
-55z m230 55 c-3 -8 -6 -5 -6 6 -1 11 2 17 5 13 3 -3 4 -12 1 -19z m547 7 c-4
-8 -10 -15 -15 -15 -4 0 -6 7 -3 15 4 8 10 15 15 15 4 0 6 -7 3 -15z m-1908
-7 c-6 -28 -18 -47 -34 -53 -14 -5 -14 -4 0 12 8 10 18 26 21 36 7 20 17 23
13 5z m55 -25 c-8 -14 -11 -15 -11 -3 0 9 -6 5 -15 -10 -8 -14 -14 -20 -15
-14 0 17 43 69 48 56 2 -6 -1 -19 -7 -29z m97 2 c-3 -3 -9 2 -12 12 -6 14 -5
15 5 6 7 -7 10 -15 7 -18z m652 -23 c-9 -3 -9 -7 1 -14 11 -7 9 -8 -4 -4 -10
3 -26 6 -35 6 -12 0 -8 8 14 31 29 30 29 30 32 8 2 -13 -1 -25 -8 -27z m895
38 c-3 -5 -13 -10 -21 -10 -8 0 -12 5 -9 10 3 6 13 10 21 10 8 0 12 -4 9 -10z
m-1495 -4 c0 -3 -4 -8 -10 -11 -5 -3 -10 -1 -10 4 0 6 5 11 10 11 6 0 10 -2
10 -4z m855 -15 c3 -6 -3 -9 -14 -8 -11 0 -17 5 -15 9 7 11 22 10 29 -1z
m1178 2 c-13 -2 -35 -2 -50 0 -16 2 -5 4 22 4 28 0 40 -2 28 -4z m-543 -18
c-7 -8 -17 -15 -22 -15 -11 0 14 29 26 30 5 0 3 -7 -4 -15z m-3170 -30 c0 -13
4 -35 9 -48 8 -21 7 -25 -7 -23 -13 2 -18 15 -20 55 -2 35 0 51 7 46 6 -3 11
-17 11 -30z m1609 32 c-2 -1 -15 -11 -29 -22 l-25 -20 19 23 c11 12 24 22 29
22 6 0 8 -1 6 -3z m1611 -12 c-7 -8 -17 -15 -23 -15 -6 0 -2 7 9 15 25 19 30
19 14 0z m65 5 c-3 -5 -11 -10 -16 -10 -6 0 -7 5 -4 10 3 6 11 10 16 10 6 0 7
-4 4 -10z m-1612 -30 c-7 -27 -13 -25 -11 4 1 14 5 23 9 20 4 -2 5 -13 2 -24z
m-1235 -35 c1 -1 -14 -2 -33 -3 -36 -1 -82 29 -70 48 4 6 66 -21 103 -45z
m423 22 c-10 -9 -11 -8 -5 6 3 10 9 15 12 12 3 -3 0 -11 -7 -18z m637 3 c-7
-11 -16 -20 -20 -20 -5 0 -3 9 4 20 7 11 16 20 20 20 5 0 3 -9 -4 -20z m916 5
c4 -13 2 -14 -12 -6 -12 7 -22 5 -37 -9 -15 -14 -24 -16 -35 -9 -13 9 -13 10
2 6 9 -3 24 3 34 14 21 23 40 25 48 4z m150 -1 c3 -8 2 -12 -4 -9 -6 3 -10 10
-10 16 0 14 7 11 14 -7z m-1135 -47 c0 -9 -2 -8 -6 1 -2 6 -10 9 -15 6 -7 -4
-8 -2 -4 5 9 13 26 5 25 -12z m191 14 c11 -1 11 -4 2 -13 -10 -10 -15 -10 -21
1 -6 9 -11 10 -15 2 -10 -15 -26 -14 -26 2 0 8 9 13 23 11 12 -1 29 -3 37 -3z
m76 -13 c4 -5 -4 -8 -17 -6 -12 1 -24 8 -26 15 -5 14 34 6 43 -9z m892 -3 c-3
-3 -9 2 -12 12 -6 14 -5 15 5 6 7 -7 10 -15 7 -18z m-1965 8 c-7 -2 -19 -2
-25 0 -7 3 -2 5 12 5 14 0 19 -2 13 -5z m861 -5 c-3 -4 -9 -8 -15 -8 -5 0 -9
4 -9 8 0 5 7 9 15 9 8 0 12 -4 9 -9z m56 8 c0 -2 -9 -6 -20 -9 -11 -3 -20 -1
-20 4 0 5 9 9 20 9 11 0 20 -2 20 -4z m-1105 -26 c-10 -11 -22 -20 -27 -20
-10 0 24 38 36 39 5 1 1 -8 -9 -19z m268 13 c-13 -2 -33 -2 -45 0 -13 2 -3 4
22 4 25 0 35 -2 23 -4z m574 -23 c-53 -28 -90 -41 -57 -20 11 7 5 10 -24 10
-56 0 -38 10 20 12 27 0 58 7 69 14 11 8 26 14 34 14 7 0 -11 -13 -42 -30z
m1433 14 c0 -2 -11 -4 -25 -4 -14 0 -25 4 -25 9 0 4 11 6 25 3 14 -2 25 -6 25
-8z m-190 -10 c0 -2 -9 -4 -20 -4 -11 0 -20 4 -20 9 0 5 9 7 20 4 11 -3 20 -7
20 -9z m50 12 c0 -2 -7 -7 -16 -10 -8 -3 -12 -2 -9 4 6 10 25 14 25 6z m480
-68 c0 -40 4 -58 13 -58 9 0 9 -2 -1 -9 -10 -6 -6 -15 18 -35 17 -14 39 -26
48 -26 13 0 14 -2 3 -9 -9 -6 3 -11 35 -16 48 -6 104 -45 104 -69 0 -7 -3 -8
-8 -1 -4 6 -16 11 -27 12 -57 4 -154 28 -180 44 -21 12 -35 15 -45 9 -10 -6
-11 -10 -3 -10 7 0 10 -7 7 -15 -8 -21 -74 -21 -74 0 0 12 -3 13 -19 3 -11 -7
-18 -14 -16 -18 2 -3 -32 -5 -76 -5 -74 0 -78 1 -84 24 -4 14 -1 27 6 31 8 5
6 11 -7 19 -18 10 -18 10 4 11 12 0 30 8 40 18 27 27 101 34 175 17 81 -19 78
-19 71 13 -3 15 -7 38 -8 52 -1 14 -8 35 -14 47 -16 29 -16 28 13 28 24 0 25
-3 25 -57z m-333 26 c-3 -3 -12 -4 -19 -1 -8 3 -5 6 6 6 11 1 17 -2 13 -5z
m243 2 c0 -3 -4 -8 -10 -11 -5 -3 -10 -1 -10 4 0 6 5 11 10 11 6 0 10 -2 10
-4z m12 -28 c-14 -6 -14 -7 4 -7 12 -1 26 -12 32 -26 16 -34 15 -40 -3 -25 -8
6 -19 9 -25 5 -5 -3 -10 -2 -10 3 0 6 -6 10 -12 9 -44 -1 -46 3 -15 36 19 19
35 28 39 22 4 -5 0 -13 -10 -17z m-2688 8 c-4 -10 8 -15 43 -19 60 -7 70 0 14
9 -55 9 -52 24 5 24 27 0 43 -4 39 -10 -3 -5 -2 -10 3 -10 6 0 12 -6 15 -14 5
-12 -8 -14 -76 -12 -121 5 -116 4 -110 26 4 15 14 20 39 20 24 0 32 -4 28 -14z
m284 -18 c2 -23 -2 -28 -21 -28 -13 0 -29 6 -36 13 -9 8 -12 8 -7 0 4 -7 -3
-13 -16 -16 -13 -2 -2 -5 25 -6 45 -1 47 -2 47 -29 0 -38 -14 -49 -54 -44
l-35 4 23 22 c12 11 15 15 6 9 -24 -18 -50 -16 -51 5 -1 14 -2 15 -6 1 -7 -28
-47 -38 -123 -32 -70 6 -100 20 -100 47 0 18 91 37 127 27 15 -5 38 -5 50 0
17 6 25 4 32 -9 6 -9 11 -13 11 -8 0 5 -7 18 -16 28 -20 21 -15 24 66 36 77
11 76 12 78 -20z m2262 12 c10 -10 15 -22 10 -25 -5 -3 -11 -1 -14 4 -8 12
-66 11 -66 -1 0 -5 -4 -7 -9 -3 -6 3 -14 -3 -20 -12 -6 -10 -11 -13 -11 -6 0
7 -7 10 -15 7 -20 -8 -19 10 1 26 12 11 48 21 97 29 4 0 16 -8 27 -19z m-1627
-7 c-7 -2 -19 -2 -25 0 -7 3 -2 5 12 5 14 0 19 -2 13 -5z m-5 -36 c2 -10 -3
-17 -12 -17 -10 0 -16 9 -16 21 0 24 23 21 28 -4z m1682 13 c-8 -5 -19 -10
-25 -10 -5 0 -3 5 5 10 8 5 20 10 25 10 6 0 3 -5 -5 -10z m871 -17 c13 -15 11
-16 -20 -10 -18 4 -40 7 -47 7 -8 0 -14 5 -14 10 0 17 66 11 81 -7z m-3704 -9
c-3 -3 -12 -4 -19 -1 -8 3 -5 6 6 6 11 1 17 -2 13 -5z m2729 -18 c10 -8 15
-18 11 -22 -10 -11 -68 -14 -62 -4 3 5 -1 11 -7 13 -10 4 -9 8 2 16 20 14 33
14 56 -3z m-1580 -22 c2 -28 1 -28 -15 4 -9 17 -9 22 1 22 7 0 14 -12 14 -26z
m2637 -16 l32 -27 -35 10 c-66 20 -111 29 -118 25 -4 -2 -16 2 -27 10 -18 13
-13 14 49 12 57 -3 73 -7 99 -30z m-1820 -98 c-7 -28 -13 -25 -13 6 0 14 4 23
9 20 5 -3 7 -15 4 -26z m1300 -17 c-7 -2 -19 -2 -25 0 -7 3 -2 5 12 5 14 0 19
-2 13 -5z"/>
<path d="M3273 2178 c-3 -6 -1 -8 5 -4 6 3 13 2 17 -4 9 -14 28 -13 23 2 -5
15 -36 19 -45 6z"/>
<path d="M3373 2125 c0 -8 4 -12 9 -9 5 3 6 10 3 15 -9 13 -12 11 -12 -6z"/>
<path d="M3680 2122 c0 -5 10 -17 22 -28 l21 -19 -18 28 c-18 28 -25 33 -25
19z"/>
<path d="M3076 2107 c3 -10 9 -15 12 -12 3 3 0 11 -7 18 -10 9 -11 8 -5 -6z"/>
<path d="M3720 2066 c0 -2 8 -10 18 -17 15 -13 16 -12 3 4 -13 16 -21 21 -21
13z"/>
<path d="M3750 2026 c0 -2 8 -10 18 -17 15 -13 16 -12 3 4 -13 16 -21 21 -21
13z"/>
<path d="M2983 2003 c-11 -10 -35 -38 -53 -63 -31 -44 -31 -43 15 8 26 28 50
52 55 52 4 0 12 -17 17 -37 9 -36 8 -40 -31 -76 -34 -33 -36 -35 -9 -18 37 25
63 27 63 6 0 -8 5 -15 10 -15 14 0 12 29 -6 86 -23 68 -35 80 -61 57z"/>
<path d="M3205 1988 c-5 -15 -25 -137 -25 -155 0 -7 5 -13 10 -13 6 0 10 9 10
19 0 26 17 36 36 20 24 -20 29 -1 6 24 -24 25 -27 52 -12 91 8 21 6 26 -6 26
-8 0 -17 -6 -19 -12z"/>
<path d="M3862 1950 c0 -14 2 -19 5 -12 2 6 2 18 0 25 -3 6 -5 1 -5 -13z"/>
<path d="M3795 1930 c10 -11 20 -20 23 -20 3 0 -3 9 -13 20 -10 11 -20 20 -23
20 -3 0 3 -9 13 -20z"/>
<path d="M3952 1924 c3 -3 -7 -19 -22 -36 -21 -22 -33 -28 -49 -23 -21 6 -29
25 -11 25 6 0 10 -5 10 -12 0 -6 3 -8 7 -5 3 4 -3 16 -15 27 -12 12 -22 19
-22 16 0 -19 -22 -165 -28 -181 -5 -15 -8 -8 -13 25 l-6 45 -1 -49 c-2 -39 -9
-57 -35 -90 -33 -41 -80 -116 -72 -116 2 0 25 28 52 63 64 84 70 90 76 74 3
-6 6 0 6 14 1 15 8 32 16 39 17 14 21 35 5 25 -12 -7 -12 21 -1 50 8 20 15
-26 24 -155 2 -25 5 -4 6 45 2 60 6 82 11 65 6 -22 8 -21 11 15 3 31 8 39 21
37 11 -2 16 2 13 10 -3 7 6 26 21 41 25 27 27 57 3 57 -7 0 -10 -3 -7 -6z
m-58 -89 c-4 -8 -8 -15 -10 -15 -2 0 -4 7 -4 15 0 8 4 15 10 15 5 0 7 -7 4
-15z"/>
<path d="M2521 1803 c-10 -26 -10 -27 4 -9 8 11 15 23 15 28 0 15 -7 8 -19
-19z"/>
<path d="M3762 1780 c0 -14 2 -19 5 -12 2 6 2 18 0 25 -3 6 -5 1 -5 -13z"/>
<path d="M2025 1741 c-3 -5 -1 -12 5 -16 5 -3 10 1 10 9 0 18 -6 21 -15 7z"/>
<path d="M4020 1742 c0 -10 22 -32 32 -32 15 0 8 15 -12 28 -11 7 -20 9 -20 4z"/>
<path d="M3803 1618 c-1 -44 0 -48 7 -23 11 42 12 75 2 75 -5 0 -9 -24 -9 -52z"/>
<path d="M4605 1630 c3 -5 8 -10 11 -10 2 0 4 5 4 10 0 6 -5 10 -11 10 -5 0
-7 -4 -4 -10z"/>
<path d="M2584 1605 c-10 -8 -14 -15 -8 -15 5 0 19 7 30 15 10 8 14 15 8 15
-5 0 -19 -7 -30 -15z"/>
<path d="M2882 1578 c2 -6 10 -14 16 -16 7 -2 10 2 6 12 -7 18 -28 22 -22 4z"/>
<path d="M3633 1575 c0 -8 4 -15 9 -15 4 0 8 4 8 9 0 6 -4 12 -8 15 -5 3 -9
-1 -9 -9z"/>
<path d="M4580 1570 c0 -6 7 -10 15 -10 8 0 15 2 15 4 0 2 -7 6 -15 10 -8 3
-15 1 -15 -4z"/>
<path d="M2673 1495 c0 -38 2 -53 4 -32 2 20 2 52 0 70 -2 17 -4 1 -4 -38z"/>
<path d="M4013 1515 c0 -22 2 -30 4 -17 2 12 2 30 0 40 -3 9 -5 -1 -4 -23z"/>
<path d="M3690 1504 c-16 -16 -21 -28 -14 -32 6 -4 14 -14 17 -22 4 -12 6 -11
6 3 1 13 10 17 46 17 45 0 62 13 53 41 -3 8 -11 6 -24 -7 -10 -11 -25 -19 -31
-18 -7 1 -18 2 -24 3 -6 0 -9 10 -6 21 7 25 5 25 -23 -6z"/>
<path d="M3106 1492 c-3 -6 -1 -14 5 -17 14 -9 20 -2 10 14 -6 8 -11 9 -15 3z"/>
<path d="M2979 1444 c28 -20 109 -28 127 -13 9 7 43 9 96 6 61 -5 72 -4 43 3
-62 14 -172 12 -178 -2 -3 -8 -6 -6 -6 5 -1 11 -9 17 -23 17 -19 0 -20 -2 -8
-10 12 -8 10 -10 -8 -10 -13 0 -20 4 -17 10 4 6 -6 10 -22 10 l-27 0 23 -16z"/>
<path d="M3760 1450 c0 -5 5 -10 11 -10 5 0 7 5 4 10 -3 6 -8 10 -11 10 -2 0
-4 -4 -4 -10z"/>
<path d="M2275 1390 c3 -5 8 -10 11 -10 2 0 4 5 4 10 0 6 -5 10 -11 10 -5 0
-7 -4 -4 -10z"/>
<path d="M3080 1373 c1 -18 18 -35 24 -24 4 6 4 16 1 21 -7 12 -25 13 -25 3z"/>
<path d="M4498 1373 c7 -3 16 -2 19 1 4 3 -2 6 -13 5 -11 0 -14 -3 -6 -6z"/>
<path d="M2277 1363 c-4 -3 -7 -11 -7 -17 0 -6 5 -5 12 2 6 6 9 14 7 17 -3 3
-9 2 -12 -2z"/>
<path d="M2243 1283 c9 -2 23 -2 30 0 6 3 -1 5 -18 5 -16 0 -22 -2 -12 -5z"/>
<path d="M2035 1250 c-3 -5 -1 -10 4 -10 6 0 11 5 11 10 0 6 -2 10 -4 10 -3 0
-8 -4 -11 -10z"/>
<path d="M3623 1260 c-1 -11 2 -20 7 -20 10 0 20 26 13 34 -12 11 -19 6 -20
-14z"/>
<path d="M4710 1110 c0 -13 11 -13 30 0 12 8 11 10 -7 10 -13 0 -23 -4 -23
-10z"/>
<path d="M4575 1100 c-3 -6 1 -7 9 -4 18 7 21 14 7 14 -6 0 -13 -4 -16 -10z"/>
<path d="M4586 1034 c-17 -12 -17 -14 -4 -14 9 0 20 5 23 11 11 17 2 18 -19 3z"/>
<path d="M1750 753 c0 -13 29 -38 35 -31 3 3 -4 13 -15 23 -11 10 -20 13 -20
8z"/>
</g>
</svg>
