<?xml version="1.0" standalone="no"?>
<!DOCTYPE svg PUBLIC "-//W3C//DTD SVG 20010904//EN"
 "http://www.w3.org/TR/2001/REC-SVG-20010904/DTD/svg10.dtd">
<svg version="1.0" xmlns="http://www.w3.org/2000/svg"
 width="1772.000000pt" height="203.000000pt" viewBox="0 0 1772.000000 203.000000"
 preserveAspectRatio="xMidYMid meet">

<g transform="translate(0.000000,203.000000) scale(0.100000,-0.100000)"
fill="#000000" stroke="none">
<path d="M12810 1818 c-150 -195 -461 -583 -512 -641 l-33 -38 -112 138 c-61
76 -207 263 -323 416 -116 152 -215 277 -218 277 -4 0 -44 -30 -90 -66 -55
-44 -80 -70 -74 -78 5 -6 114 -141 243 -301 129 -159 279 -348 334 -419 89
-116 97 -130 86 -149 -7 -11 -164 -200 -350 -420 -185 -219 -336 -403 -336
-407 0 -14 149 -130 156 -122 66 70 1518 1856 1514 1861 -6 11 -141 121 -147
121 -2 0 -64 -78 -138 -172z"/>
<path d="M5707 1964 c-42 -8 -113 -28 -157 -45 -299 -115 -429 -416 -296 -685
61 -123 150 -192 433 -334 203 -102 285 -161 322 -234 30 -58 39 -156 21 -221
-36 -128 -200 -212 -459 -233 -47 -4 -1319 -5 -2826 -2 -1507 3 -2742 4 -2744
3 -2 -1 0 -47 4 -101 l7 -99 66 -7 c37 -3 1293 -6 2792 -6 2933 0 2815 -2
2985 50 167 52 314 159 377 276 77 141 77 344 1 474 -37 62 -115 143 -182 187
-31 21 -130 76 -221 123 -270 140 -336 194 -367 299 -47 163 67 305 282 351
70 15 246 18 394 7 l103 -8 -6 68 c-14 141 -13 140 -54 147 -69 11 -395 5
-475 -10z"/>
<path d="M6599 1951 c-1 -3 -2 -437 -3 -963 l-1 -958 613 0 612 0 0 100 0 100
-495 0 -495 0 0 350 0 350 490 0 490 0 0 100 0 100 -490 0 -490 0 0 309 0 309
118 7 c64 4 284 6 487 4 l370 -4 0 100 0 100 -602 1 c-332 0 -603 -2 -604 -5z"/>
<path d="M8054 993 l1 -963 613 0 612 0 0 100 0 100 -495 0 -495 0 0 350 0
350 485 0 485 0 0 100 0 100 -485 0 -485 0 0 309 0 309 118 7 c64 5 282 5 485
1 l367 -7 0 103 0 104 -603 0 -603 0 0 -963z"/>
<path d="M9520 1854 l0 -102 353 2 352 1 1 -865 1 -865 116 -3 117 -3 2 868 3
868 353 -2 352 -3 0 103 0 103 -825 0 -825 1 0 -103z"/>
<path d="M12590 130 l0 -100 2560 0 2560 0 0 100 0 100 -2560 0 -2560 0 0
-100z"/>
</g>
</svg>
