<?xml version="1.0" standalone="no"?>
<!DOCTYPE svg PUBLIC "-//W3C//DTD SVG 20010904//EN"
 "http://www.w3.org/TR/2001/REC-SVG-20010904/DTD/svg10.dtd">
<svg version="1.0" xmlns="http://www.w3.org/2000/svg"
 width="84.000000pt" height="80.000000pt" viewBox="0 0 84.000000 80.000000"
 preserveAspectRatio="xMidYMid meet">

<g transform="translate(0.000000,80.000000) scale(0.100000,-0.100000)"
fill="#000000" stroke="none">
<path d="M 4 8 L 10 1 L 13 0 L 12 3 L 5 9 C 6 10 6 11 7 10 C 7 11 8 12 7 12 A 1.42 1.42 0 0 1 6 13 A 5 5 0 0 0 4 10 Q 3.5 9.9 3.5 10.5 T 2 11.8 T 1.2 11 T 2.5 9.5 T 3 9 A 5 5 90 0 0 0 7 A 1.42 1.42 0 0 1 1 6 C 1 5 2 6 3 6 C 2 7 3 7 4 8 M 10 1 L 10 3 L 12 3 L 10.2 2.8 L 10 1"/>
<!-- <path d="M360 745 c-107 -30 -191 -102 -239 -205 -22 -47 -26 -69 -26 -150 0
-84 3 -102 29 -157 18 -39 47 -80 77 -108 52 -48 138 -95 177 -95 22 0 22 2
22 125 l0 125 -50 0 -50 0 0 55 0 55 50 0 50 0 0 63 c0 117 53 170 165 165
l60 -3 0 -50 0 -50 -40 -3 c-49 -4 -65 -23 -65 -79 l0 -43 50 0 c50 0 50 0 50
-32 0 -67 -8 -78 -56 -78 l-44 0 0 -125 c0 -123 0 -125 23 -125 46 0 141 56
194 113 165 181 103 480 -121 583 -69 32 -181 40 -256 19z"/> -->
</g>
</svg>
